<svg width="156" height="147" viewBox="0 0 156 147" fill="none" xmlns="http://www.w3.org/2000/svg">
<path d="M47.0601 70.4949C49.0696 70.4949 80.8307 70.4949 96.4601 70.4949M47.0601 94.7762H78.877" stroke="#00FFFF" stroke-width="8.37288" stroke-linecap="round" stroke-linejoin="round"/>
<path d="M120.741 140.827L98.8116 118.898H106.609V94.7762H133.167V118.898H142.67L120.741 140.827Z" stroke="#00FFFF" stroke-width="8.37288" stroke-linecap="round" stroke-linejoin="round"/>
<path fill-rule="evenodd" clip-rule="evenodd" d="M26.1279 14.3953C26.1279 11.1583 28.7519 8.53426 31.9889 8.53426H83.6217V27.7919C83.6217 34.7282 89.2447 40.3512 96.181 40.3512H116.555V82.2156H124.928V36.1648C124.928 35.0294 124.467 33.9428 123.65 33.1539L90.7169 1.33697C89.9363 0.582869 88.8934 0.161377 87.8081 0.161377H31.9889C24.1277 0.161377 17.755 6.5341 17.755 14.3953V116.544C17.755 124.406 24.1277 130.778 31.9889 130.778H92.2729L83.9 122.405H31.9889C28.7519 122.405 26.1279 119.781 26.1279 116.544V14.3953ZM110.383 31.9783L91.9946 14.2134V27.7919C91.9946 30.104 93.8689 31.9783 96.181 31.9783H110.383Z" fill="#00FFFF"/>
</svg>
