<svg width="137" height="146" viewBox="0 0 137 146" fill="none" xmlns="http://www.w3.org/2000/svg">
<path d="M98.8552 139.827L76.9262 117.898H84.7231V93.7762H111.282V117.898H120.784L98.8552 139.827Z" stroke="#00FFFF" stroke-width="8.37288" stroke-linecap="round" stroke-linejoin="round"/>
<path fill-rule="evenodd" clip-rule="evenodd" d="M73.2233 88.5444C70.6818 86.0109 68.1414 83.478 65.6039 80.9451C65.3082 80.6499 64.9855 80.3548 64.6356 80.0349L64.5389 79.9464L64.5387 79.9466C61.2792 83.2002 58.1165 86.3571 54.9861 89.5462C54.7602 89.8039 54.7602 90.3838 54.8247 90.8026C54.9523 91.5897 55.1215 92.3726 55.2905 93.1543C55.5918 94.5483 55.8923 95.9386 55.9543 97.342C56.4061 108.907 49.6611 118.7 38.7205 122.501C37.5277 122.919 36.2805 123.188 35.0319 123.457C34.3549 123.603 33.6776 123.749 33.0082 123.919H28.3932C28.0705 123.854 27.78 123.79 27.4573 123.693C26.7652 123.498 26.0732 123.308 25.3818 123.119C23.5583 122.618 21.7395 122.119 19.9377 121.535C18.4209 121.052 17.614 119.827 17.5495 118.217C17.4849 116.96 18.1627 116.026 19.034 115.156C20.9543 113.256 22.8664 111.347 24.7584 109.459C26.6504 107.57 28.5223 105.702 30.3618 103.881C29.7786 103.299 29.199 102.724 28.6218 102.152C27.4742 101.014 26.3362 99.8846 25.1982 98.7272C22.9308 100.952 20.6403 103.234 18.3334 105.533C16.7984 107.063 15.2563 108.599 13.709 110.131C11.4499 112.354 8.64216 111.806 7.35124 108.907C5.44714 104.622 4.7694 100.145 5.28577 95.4736C7.02851 79.9142 22.9391 69.4769 37.8814 74.2123C38.7851 74.5023 39.3014 74.3734 39.9792 73.6969C43.9498 69.6852 47.9386 65.7098 51.9183 61.7434C53.2434 60.4226 54.5676 59.1029 55.8897 57.7831C56.1802 57.4933 56.4706 57.1712 56.761 56.8491L56.7611 56.8489C56.5997 56.6557 56.5352 56.559 56.4706 56.4624C54.4773 54.4726 52.4859 52.4829 50.495 50.4936C44.5246 44.528 38.5586 38.5669 32.5564 32.624C32.2014 32.2696 31.5882 32.0441 31.0718 31.9797C27.0377 31.3354 23.0359 30.7233 19.0018 30.1113C17.7431 29.918 16.8072 29.3381 16.1295 28.3073C15.2084 26.9501 14.285 25.593 13.3612 24.2352C10.886 20.5974 8.40763 16.955 5.9635 13.2955C4.64031 11.3627 4.80168 9.75197 6.4476 8.07683C8.64216 5.82185 10.869 3.59908 13.1281 1.40852C14.8708 -0.298825 16.549 -0.459895 18.4854 0.957524C20.9866 2.77763 23.4716 4.60578 25.9566 6.43394C28.4416 8.26208 30.9266 10.0902 33.4278 11.9103C34.4605 12.6834 35.0091 13.6821 35.1705 14.9384C35.5901 18.4176 36.0419 21.8967 36.5582 25.3436C36.6551 25.9556 36.9778 26.6321 37.4296 27.0831C45.3365 35.04 53.2756 42.9647 61.2148 50.8893C61.3482 51.0225 61.4816 51.1385 61.6105 51.2505C61.7311 51.3554 61.8479 51.4568 61.957 51.5658C62.0299 51.5222 62.083 51.4983 62.1253 51.4792C62.1767 51.4561 62.2121 51.4401 62.2475 51.4048C63.6588 49.9961 65.072 48.5874 66.4858 47.1782C70.7299 42.9479 74.9785 38.7131 79.1908 34.4602C79.4812 34.1702 79.5458 33.4293 79.4167 33.0105C78.2871 29.2737 77.9967 25.5046 78.5453 21.6712C80.9658 5.242 98.5546 -4.48665 113.852 2.18166C117.208 3.63129 117.725 6.33728 115.143 8.9144L107.01 17.0323C105.945 18.0954 104.848 19.1585 103.847 20.1249C105.655 21.8967 107.333 23.5718 109.043 25.3114C112.755 21.6067 116.563 17.8055 120.339 14.0042C122.856 11.4915 125.728 11.9747 126.955 15.2928C127.607 17.0902 128.072 18.966 128.534 20.8327C128.734 21.6424 128.934 22.4505 129.149 23.2497V27.8563C129.02 28.4361 128.891 29.016 128.794 29.5958C125.922 45.0586 111.109 54.1107 96.005 49.6008C95.295 49.4075 94.9077 49.5363 94.4236 50.0196C91.5513 52.9188 88.679 55.7859 85.7745 58.6851C85.6289 58.8304 85.4968 58.9891 85.3176 59.2042C85.2187 59.3229 85.1054 59.4589 84.9677 59.6194C85.1189 59.7355 85.2744 59.8433 85.4265 59.9487C85.6963 60.1357 85.9554 60.3154 86.1618 60.5213L106.056 80.3797H95.9227L91.1963 75.662C91.0521 75.518 90.908 75.3942 90.7806 75.2849C90.68 75.1984 90.5898 75.121 90.5186 75.0499C88.6926 76.8388 86.902 78.6101 85.119 80.3868C79.7662 80.5598 75.2069 83.873 73.2233 88.5444ZM88.4301 15.7054C88.4645 15.6584 88.495 15.6166 88.5177 15.5827C96.8441 23.9262 105.171 32.2374 113.594 40.613C110.141 42.8358 106.268 43.8989 102.105 43.4157C100.2 43.1902 98.2964 42.6425 96.5214 41.966C94.3913 41.1607 92.7777 41.4828 91.164 43.0935C76.9317 57.3644 62.6348 71.603 48.3379 85.8416C46.692 87.4845 46.3047 89.1274 47.2083 91.2858C49.5965 96.9555 49.177 102.496 46.0788 107.844C46.0159 107.948 45.9394 108.053 45.8759 108.14C45.8415 108.187 45.8109 108.229 45.7883 108.263L20.7122 83.2323C24.1654 81.0095 28.0382 79.9464 32.2014 80.4296C34.1055 80.6551 36.0096 81.2028 37.7846 81.8793C39.9146 82.6846 41.5283 82.3625 43.1419 80.7518C57.3743 66.4809 71.6712 52.2423 85.9681 38.0037C87.614 36.3608 88.0013 34.7179 87.0977 32.5595C84.7095 26.8899 85.129 21.349 88.2272 16.0015C88.2901 15.8969 88.3666 15.7923 88.4301 15.7054ZM15.3788 14.1764C14.7423 13.2654 14.1047 12.3527 13.4831 11.4271C14.5481 10.3962 15.484 9.46204 16.4522 8.49562C20.1636 11.2016 23.9073 13.9398 27.6186 16.7102C27.8768 16.9035 28.0705 17.3545 28.135 17.7088C28.3414 19.0477 28.5213 20.3998 28.7087 21.8071C28.8143 22.6008 28.9223 23.412 29.0387 24.2483C28.5709 24.1846 28.1102 24.107 27.6553 24.0303C26.7292 23.8743 25.8273 23.7223 24.94 23.7007C22.3259 23.6362 20.6477 22.4765 19.3245 20.1893C18.132 18.1173 16.7582 16.1508 15.3788 14.1764ZM79.9799 74.6974C78.2915 76.3666 76.603 78.0358 74.9308 79.6887C73.3494 78.078 71.6389 76.4029 69.9607 74.76C73.2849 71.4741 76.6735 68.1239 79.9976 64.8058L84.9677 69.7668C83.3157 71.3997 81.6479 73.0485 79.9799 74.6974ZM28.2964 116.477C30.8137 113.932 33.2987 111.452 35.7191 109.036C36.4658 109.781 37.2203 110.542 37.9865 111.315C38.7767 112.112 39.5794 112.921 40.3987 113.739C36.7196 116.058 32.6855 116.993 28.2964 116.477ZM105.945 7.40034C103.46 9.91304 100.975 12.3935 98.5223 14.8418C97.0377 13.3277 95.4886 11.7815 93.8427 10.1707C97.5541 7.85134 101.588 6.88491 105.945 7.40034ZM114.304 30.5945C116.724 28.2106 119.242 25.7301 121.759 23.2497C122.275 27.5019 121.307 31.5609 118.983 35.2333C117.37 33.6548 115.788 32.0763 114.304 30.5945ZM12.5795 100.499C11.6758 97.8252 12.999 91.9301 15.3872 88.612C17.0008 90.1905 18.5499 91.7368 19.9377 93.1542C18.2954 94.8151 16.6241 96.476 14.982 98.1079C14.1717 98.9132 13.3685 99.7114 12.5795 100.499Z" fill="#00FFFF"/>
</svg>
