<svg width="118" height="145" viewBox="0 0 118 145" fill="none" xmlns="http://www.w3.org/2000/svg">
<path d="M98.9993 19H77.4898H39.5842H18.9993C14.0287 19 9.99927 23.0294 9.99927 28V129C9.99927 133.971 14.0387 138 19.0092 138H98.9893C103.96 138 107.999 133.971 107.999 129V28C107.999 23.0294 103.97 19 98.9993 19Z" stroke="#00FFFF" stroke-width="8.37" stroke-linecap="round" stroke-linejoin="round"/>
<path d="M68.3338 19L64.4434 17.4575L62.1724 23.185H68.3338V19ZM50.6648 19V23.185H56.8261L54.5551 17.4574L50.6648 19ZM32.9993 19V14.815H28.8143V19H32.9993ZM85.9993 19H90.1843V14.815H85.9993V19ZM64.8143 15.5C64.8143 16.1992 64.6814 16.8572 64.4434 17.4575L72.2241 20.5425C72.845 18.9765 73.1843 17.2728 73.1843 15.5H64.8143ZM59.4993 10.185C62.4347 10.185 64.8143 12.5646 64.8143 15.5H73.1843C73.1843 7.94198 67.0573 1.815 59.4993 1.815V10.185ZM54.1843 15.5C54.1843 12.5646 56.5639 10.185 59.4993 10.185V1.815C51.9412 1.815 45.8143 7.94198 45.8143 15.5H54.1843ZM54.5551 17.4574C54.3171 16.8572 54.1843 16.1992 54.1843 15.5H45.8143C45.8143 17.2728 46.1535 18.9765 46.7744 20.5426L54.5551 17.4574ZM32.9993 23.185H50.6648V14.815H32.9993V23.185ZM37.1843 32V19H28.8143V32H37.1843ZM36.9993 31.815C37.1014 31.815 37.1843 31.8978 37.1843 32H28.8143C28.8143 36.5205 32.4788 40.185 36.9993 40.185V31.815ZM81.9993 31.815H36.9993V40.185H81.9993V31.815ZM81.8143 32C81.8143 31.8978 81.8971 31.815 81.9993 31.815V40.185C86.5197 40.185 90.1843 36.5205 90.1843 32H81.8143ZM81.8143 19V32H90.1843V19H81.8143ZM68.3338 23.185H85.9993V14.815H68.3338V23.185Z" fill="#00FFFF"/>
<path d="M22.5754 65.1199H50.9224M22.5754 100.288H50.9224M65.3991 66.4084L72.2964 73.3056L87.0004 58.6016M65.3991 101.425L72.1448 108.171L87.0004 93.3153" stroke="#00FFFF" stroke-width="8" stroke-linecap="round" stroke-linejoin="round"/>
</svg>
