<svg width="169" height="125" viewBox="0 0 169 125" fill="none" xmlns="http://www.w3.org/2000/svg">
<path d="M48.5 42.5C48.5 35.0442 54.5442 29 62 29C69.4558 29 75.5 35.0442 75.5 42.5C75.5 49.9558 69.4558 56 62 56V69" stroke="#00FFFF" stroke-width="8.35" stroke-linecap="round"/>
<circle cx="61.685" cy="85.185" r="4.185" fill="#00FFFF"/>
<path d="M18.0072 88.2963L22.9161 89.2464C23.173 87.9188 22.8813 86.5437 22.1074 85.4348L18.0072 88.2963ZM14 109L9.0911 108.05C8.76311 109.745 9.33237 111.488 10.597 112.663C11.8616 113.838 13.6427 114.277 15.3087 113.826L14 109ZM34.2971 103.496L36.8671 99.2067C35.701 98.508 34.3005 98.3142 32.9885 98.67L34.2971 103.496ZM109.5 58C109.5 84.5097 88.0097 106 61.5 106V116C93.5325 116 119.5 90.0325 119.5 58H109.5ZM61.5 10C88.0097 10 109.5 31.4903 109.5 58H119.5C119.5 25.9675 93.5325 0 61.5 0V10ZM13.5 58C13.5 31.4903 34.9903 10 61.5 10V0C29.4675 0 3.5 25.9675 3.5 58H13.5ZM22.1074 85.4348C16.6816 77.6601 13.5 68.2091 13.5 58H3.5C3.5 70.3213 7.34767 81.759 13.9069 91.1578L22.1074 85.4348ZM13.0983 87.3462L9.0911 108.05L18.9089 109.95L22.9161 89.2464L13.0983 87.3462ZM15.3087 113.826L35.6058 108.321L32.9885 98.67L12.6913 104.174L15.3087 113.826ZM61.5 106C52.485 106 44.0646 103.52 36.8671 99.2067L31.7271 107.785C40.4343 113.002 50.6247 116 61.5 116V106Z" fill="#00FFFF"/>
<path d="M111.373 39.0466C109.195 39.8048 106.815 38.6542 106.057 36.4767C105.299 34.2991 106.45 31.9192 108.627 31.161L111.373 39.0466ZM94.1974 102.269C92.4884 100.721 92.3576 98.0805 93.9054 96.3714C95.4533 94.6623 98.0935 94.5316 99.8026 96.0794L94.1974 102.269ZM157.159 95.0367C155.844 96.9304 153.242 97.3991 151.348 96.0835C149.455 94.768 148.986 92.1664 150.301 90.2727L157.159 95.0367ZM139.902 100.012C141.879 98.8234 144.444 99.4621 145.632 101.438C146.82 103.414 146.181 105.979 144.205 107.168L139.902 100.012ZM156.557 107.565L160.656 106.771C160.929 108.186 160.454 109.643 159.398 110.624C158.342 111.605 156.855 111.971 155.464 111.594L156.557 107.565ZM149.597 93.5785C149.159 91.3147 150.639 89.1244 152.903 88.6862C155.167 88.2481 157.357 89.728 157.795 91.9918L149.597 93.5785ZM140.94 107.656C138.715 107.052 137.4 104.759 138.004 102.533C138.607 100.308 140.9 98.9932 143.126 99.5967L140.94 107.656ZM156.325 71C156.325 52.319 141.181 37.175 122.5 37.175V28.825C145.793 28.825 164.675 47.7074 164.675 71H156.325ZM122.5 37.175C118.595 37.175 114.852 37.8352 111.373 39.0466L108.627 31.161C112.977 29.6463 117.647 28.825 122.5 28.825V37.175ZM99.8026 96.0794C105.807 101.518 113.763 104.825 122.5 104.825V113.175C111.611 113.175 101.678 109.043 94.1974 102.269L99.8026 96.0794ZM150.301 90.2727C154.099 84.8057 156.325 78.169 156.325 71H164.675C164.675 79.9262 161.897 88.2162 157.159 95.0367L150.301 90.2727ZM122.5 104.825C128.872 104.825 134.821 103.067 139.902 100.012L144.205 107.168C137.861 110.982 130.43 113.175 122.5 113.175V104.825ZM152.458 108.358L149.597 93.5785L157.795 91.9918L160.656 106.771L152.458 108.358ZM143.126 99.5967L157.649 103.535L155.464 111.594L140.94 107.656L143.126 99.5967Z" fill="#00FFFF"/>
</svg>
