<svg width="181" height="124" viewBox="0 0 181 124" fill="none" xmlns="http://www.w3.org/2000/svg">
<g clip-path="url(#clip0_1888_1272)">
<path d="M30.8289 87.9097C20.0937 80.3437 13.0811 67.8497 13.0811 53.7179C13.0811 30.6314 31.7964 11.9161 54.8829 11.9161C77.9694 11.9161 96.6846 30.6314 96.6846 53.7179C96.6846 60.5344 95.0531 66.9699 92.1591 72.655" stroke="#00FFFF" stroke-width="8"/>
<path d="M54.9994 26.0005V74.5005" stroke="#00FFFF" stroke-width="8" stroke-linecap="round"/>
<path d="M65.9932 43.2194C66.1277 39.4798 64.137 33.0005 55.0979 33.0005C46.0589 33.0005 43.9337 39.2559 44.001 42.9955C44.001 46.8711 46.6239 54.0104 56.1068 54.0104C65.7942 54.0104 65.9932 62.7816 65.9932 64.8214C65.9932 69.3089 63.007 74.0005 55.0979 74.0005C45.2116 74.0005 44.001 67.0652 44.001 64.8214" stroke="#00FFFF" stroke-width="8" stroke-linecap="round"/>
</g>
<path d="M139 48.3913L138.494 44.4234C136.303 44.7028 134.753 46.7058 135.032 48.8972L139 48.3913ZM166.772 44.851L170.74 44.3451C170.606 43.2928 170.059 42.3368 169.22 41.6876C168.381 41.0383 167.318 40.7489 166.266 40.8831L166.772 44.851ZM139.673 53.6697V57.6697C140.822 57.6697 141.915 57.1756 142.675 56.3132C143.434 55.4509 143.786 54.3037 143.641 53.1639L139.673 53.6697ZM90.6795 74.6486V78.6486C92.0439 78.6486 93.3142 77.9531 94.0493 76.8037L90.6795 74.6486ZM61.4066 74.6486V70.6486C61.3234 70.6486 61.2401 70.6512 61.1571 70.6564L61.4066 74.6486ZM61.4066 101.335C63.6157 101.335 65.4066 99.5443 65.4066 97.3351C65.4066 95.126 63.6157 93.3351 61.4066 93.3351V101.335ZM44.8186 97.3351L42.5878 100.655C43.2474 101.098 44.024 101.335 44.8186 101.335V97.3351ZM21.8433 81.8986L24.0741 78.5784L21.8433 81.8986ZM7.86302 84.4753L4.59515 82.1686H4.59515L7.86302 84.4753ZM10.4665 98.7593L8.22266 102.071H8.22266L10.4665 98.7593ZM28.6758 111.098L30.9197 107.787L28.6758 111.098ZM106.165 115.042L104.811 111.278L106.165 115.042ZM145.683 100.816L149.651 100.31C149.497 99.1062 148.806 98.0373 147.771 97.4039C146.736 96.7705 145.47 96.6411 144.328 97.052L145.683 100.816ZM146.229 105.097L142.261 105.603C142.395 106.655 142.942 107.611 143.781 108.26C144.62 108.91 145.682 109.199 146.735 109.065L146.229 105.097ZM174.001 101.556L174.506 105.524C176.698 105.245 178.248 103.242 177.969 101.051L174.001 101.556ZM139.506 52.3592L167.278 48.8188L166.266 40.8831L138.494 44.4234L139.506 52.3592ZM143.641 53.1639L142.968 47.8855L135.032 48.8972L135.705 54.1755L143.641 53.1639ZM128.999 57.6697H139.673V49.6697H128.999V57.6697ZM94.0493 76.8037C101.673 64.8825 114.848 57.6697 128.999 57.6697V49.6697C112.119 49.6697 96.4039 58.2735 87.3097 72.4935L94.0493 76.8037ZM61.4066 78.6486H90.6795V70.6486H61.4066V78.6486ZM53.6974 86.3578C53.6974 83.3613 54.9413 81.6426 56.4625 80.5207C58.1559 79.2718 60.2983 78.7257 61.6561 78.6408L61.1571 70.6564C58.6118 70.8155 54.8996 71.733 51.7142 74.0823C48.3566 76.5585 45.6974 80.5723 45.6974 86.3578H53.6974ZM61.4066 93.3351C60.0453 93.3351 57.9515 92.9213 56.3262 91.8242C54.9149 90.8716 53.6974 89.3329 53.6974 86.3578H45.6974C45.6974 92.1645 48.383 96.1145 51.8505 98.455C55.1041 100.651 58.8649 101.335 61.4066 101.335V93.3351ZM44.8186 101.335H61.4066V93.3351H44.8186V101.335ZM19.6125 85.2188L42.5878 100.655L47.0494 94.0149L24.0741 78.5784L19.6125 85.2188ZM11.1309 86.782C13.064 84.0434 16.8301 83.3493 19.6125 85.2188L24.0741 78.5784C17.6839 74.285 9.03478 75.8791 4.59515 82.1686L11.1309 86.782ZM12.7104 95.4479C9.85128 93.5105 9.13918 89.6036 11.1309 86.782L4.59515 82.1686C0.0210004 88.6486 1.6564 97.6211 8.22266 102.071L12.7104 95.4479ZM30.9197 107.787L12.7104 95.4479L8.22266 102.071L26.432 114.41L30.9197 107.787ZM51.3918 114.07C44.093 114.07 36.9619 111.882 30.9197 107.787L26.432 114.41C33.7987 119.402 42.493 122.07 51.3918 122.07V114.07ZM88.8137 114.07H51.3918V122.07H88.8137V114.07ZM104.811 111.278C99.6794 113.126 94.2672 114.07 88.8137 114.07V122.07C95.1909 122.07 101.52 120.966 107.52 118.805L104.811 111.278ZM144.328 97.052L104.811 111.278L107.52 118.805L147.038 104.579L144.328 97.052ZM150.197 104.591L149.651 100.31L141.715 101.321L142.261 105.603L150.197 104.591ZM173.495 97.5886L145.723 101.129L146.735 109.065L174.506 105.524L173.495 97.5886ZM162.804 45.3568L170.033 102.062L177.969 101.051L170.74 44.3451L162.804 45.3568Z" fill="#00FFFF"/>
<path d="M139.71 53.4221L145.686 101.478" stroke="#00FFFF" stroke-width="8"/>
<path d="M92.9957 97.3363V101.336H94.1724L95.1616 100.699L92.9957 97.3363ZM109.554 91.4294C111.411 90.2332 111.947 87.7579 110.751 85.9006C109.555 84.0434 107.08 83.5075 105.222 84.7037L109.554 91.4294ZM61.2834 101.336H92.9957V93.3363H61.2834V101.336ZM95.1616 100.699L109.554 91.4294L105.222 84.7037L90.8298 93.9734L95.1616 100.699Z" fill="#00FFFF"/>
<defs>
<clipPath id="clip0_1888_1272">
<rect width="92.9444" height="90.2581" fill="white" transform="translate(9.29239 5.08643)"/>
</clipPath>
</defs>
</svg>
