<svg width="656" height="44" viewBox="0 0 656 44" fill="none" xmlns="http://www.w3.org/2000/svg">
<g opacity="0.5" filter="url(#filter0_f_92_4155)">
<ellipse cx="12" cy="12" rx="12" ry="12" transform="matrix(1.31134e-07 -1 -1 -1.31134e-07 37 31)" fill="#00FFFF"/>
</g>
<path fill-rule="evenodd" clip-rule="evenodd" d="M37 19C37 12.3726 31.6274 6.99999 25 6.99999C18.3726 6.99999 13 12.3726 13 19C13 25.6274 18.3726 31 25 31C31.6274 31 37 25.6274 37 19ZM25.1449 13.75L25.0531 13.75L25.0531 13.7509L24.8541 13.7509C23.872 13.7541 22.8901 13.77 21.9086 13.7986L21.7323 13.8051L21.6436 13.8079L21.4662 13.8135L21.2909 13.8201C20.1461 13.8668 19.056 13.9415 18.5537 14.063C18.2035 14.1488 17.8843 14.3166 17.6282 14.5494C17.372 14.7823 17.188 15.072 17.0944 15.3896C16.9903 15.7437 16.9171 16.2145 16.8675 16.6994L16.8572 16.7966L16.8345 17.0395L16.8263 17.1366L16.8232 17.1852L16.816 17.2814C16.7603 18.0475 16.752 18.7417 16.75 18.9425L16.75 19.0575C16.7554 19.6922 16.7836 20.3265 16.8345 20.9596L16.8428 21.0567L16.851 21.1548C16.9026 21.6892 16.9789 22.2208 17.0934 22.6104C17.1871 22.9278 17.3712 23.2174 17.6273 23.45C17.8835 23.6827 18.2026 23.8503 18.5527 23.9361C19.055 24.0594 20.1451 24.1332 21.2898 24.179L21.4662 24.1855L21.6425 24.1921L21.7323 24.1958L21.9076 24.2014C23.2895 24.2444 24.6076 24.25 24.9262 24.25L25.0727 24.25C25.7028 24.2491 30.2499 24.2285 31.4462 23.937C31.7965 23.8512 32.1157 23.6834 32.3718 23.4506C32.6279 23.2177 32.812 22.928 32.9055 22.6104C33.02 22.2199 33.0963 21.6892 33.1479 21.1548L33.1572 21.0577L33.1654 20.9596C33.2397 20.0702 33.249 19.2163 33.25 19.035L33.25 18.965C33.249 18.7903 33.2407 17.9905 33.1737 17.1366L33.1654 17.0395L33.1427 16.7966L33.1324 16.6994C33.0829 16.2145 33.0097 15.7446 32.9055 15.3896C32.8117 15.0721 32.6276 14.7825 32.3715 14.5497C32.1154 14.3169 31.7963 14.1491 31.4462 14.063C30.2881 13.7808 25.9926 13.7528 25.1449 13.75ZM23.3504 21.2501L23.3504 16.7489L27.6376 19.0005L23.3504 21.2501Z" fill="#00FFFF"/>
<path d="M53.5 25V13.552H49.072V12.4H59.26V13.552H54.832V25H53.5ZM60.8718 25V15.55H62.0958V18.124L61.9698 17.674C62.2338 16.954 62.6778 16.408 63.3018 16.036C63.9258 15.652 64.6998 15.46 65.6238 15.46V16.702C65.5758 16.702 65.5278 16.702 65.4798 16.702C65.4318 16.69 65.3838 16.684 65.3358 16.684C64.3398 16.684 63.5598 16.99 62.9958 17.602C62.4318 18.202 62.1498 19.06 62.1498 20.176V25H60.8718ZM73.1747 25V22.912L73.1207 22.57V19.078C73.1207 18.274 72.8927 17.656 72.4367 17.224C71.9927 16.792 71.3267 16.576 70.4387 16.576C69.8267 16.576 69.2447 16.678 68.6927 16.882C68.1407 17.086 67.6727 17.356 67.2887 17.692L66.7127 16.738C67.1927 16.33 67.7687 16.018 68.4407 15.802C69.1127 15.574 69.8207 15.46 70.5647 15.46C71.7887 15.46 72.7307 15.766 73.3907 16.378C74.0627 16.978 74.3987 17.896 74.3987 19.132V25H73.1747ZM69.9167 25.09C69.2087 25.09 68.5907 24.976 68.0627 24.748C67.5467 24.508 67.1507 24.184 66.8747 23.776C66.5987 23.356 66.4607 22.876 66.4607 22.336C66.4607 21.844 66.5747 21.4 66.8027 21.004C67.0427 20.596 67.4267 20.272 67.9547 20.032C68.4947 19.78 69.2147 19.654 70.1147 19.654H73.3727V20.608H70.1507C69.2387 20.608 68.6027 20.77 68.2427 21.094C67.8947 21.418 67.7207 21.82 67.7207 22.3C67.7207 22.84 67.9307 23.272 68.3507 23.596C68.7707 23.92 69.3587 24.082 70.1147 24.082C70.8347 24.082 71.4527 23.92 71.9687 23.596C72.4967 23.26 72.8807 22.78 73.1207 22.156L73.4087 23.038C73.1687 23.662 72.7487 24.16 72.1487 24.532C71.5607 24.904 70.8167 25.09 69.9167 25.09ZM78.0859 25V14.362C78.0859 13.522 78.3319 12.844 78.8239 12.328C79.3159 11.812 80.0239 11.554 80.9479 11.554C81.3079 11.554 81.6559 11.602 81.9919 11.698C82.3279 11.794 82.6099 11.944 82.8379 12.148L82.4059 13.102C82.2259 12.946 82.0159 12.832 81.7759 12.76C81.5359 12.676 81.2779 12.634 81.0019 12.634C80.4619 12.634 80.0479 12.784 79.7599 13.084C79.4719 13.384 79.3279 13.828 79.3279 14.416V15.856L79.3639 16.45V25H78.0859ZM76.3939 16.612V15.55H82.2439V16.612H76.3939ZM84.1855 25V14.362C84.1855 13.522 84.4315 12.844 84.9235 12.328C85.4155 11.812 86.1235 11.554 87.0475 11.554C87.4075 11.554 87.7555 11.602 88.0915 11.698C88.4275 11.794 88.7095 11.944 88.9375 12.148L88.5055 13.102C88.3255 12.946 88.1155 12.832 87.8755 12.76C87.6355 12.676 87.3775 12.634 87.1015 12.634C86.5615 12.634 86.1475 12.784 85.8595 13.084C85.5715 13.384 85.4275 13.828 85.4275 14.416V15.856L85.4635 16.45V25H84.1855ZM82.4935 16.612V15.55H88.3435V16.612H82.4935ZM90.0715 25V15.55H91.3495V25H90.0715ZM90.7195 13.462C90.4555 13.462 90.2335 13.372 90.0535 13.192C89.8735 13.012 89.7835 12.796 89.7835 12.544C89.7835 12.292 89.8735 12.082 90.0535 11.914C90.2335 11.734 90.4555 11.644 90.7195 11.644C90.9835 11.644 91.2055 11.728 91.3855 11.896C91.5655 12.064 91.6555 12.274 91.6555 12.526C91.6555 12.79 91.5655 13.012 91.3855 13.192C91.2175 13.372 90.9955 13.462 90.7195 13.462ZM98.8623 25.09C97.9263 25.09 97.0863 24.886 96.3423 24.478C95.6103 24.058 95.0343 23.488 94.6143 22.768C94.1943 22.036 93.9843 21.202 93.9843 20.266C93.9843 19.318 94.1943 18.484 94.6143 17.764C95.0343 17.044 95.6103 16.48 96.3423 16.072C97.0863 15.664 97.9263 15.46 98.8623 15.46C99.6663 15.46 100.392 15.616 101.04 15.928C101.688 16.24 102.198 16.708 102.57 17.332L101.616 17.98C101.292 17.5 100.89 17.146 100.41 16.918C99.9303 16.69 99.4083 16.576 98.8443 16.576C98.1723 16.576 97.5663 16.732 97.0263 17.044C96.4863 17.344 96.0603 17.77 95.7483 18.322C95.4363 18.874 95.2803 19.522 95.2803 20.266C95.2803 21.01 95.4363 21.658 95.7483 22.21C96.0603 22.762 96.4863 23.194 97.0263 23.506C97.5663 23.806 98.1723 23.956 98.8443 23.956C99.4083 23.956 99.9303 23.842 100.41 23.614C100.89 23.386 101.292 23.038 101.616 22.57L102.57 23.218C102.198 23.83 101.688 24.298 101.04 24.622C100.392 24.934 99.6663 25.09 98.8623 25.09ZM110.062 25V12.4H115.192C116.536 12.4 117.712 12.67 118.72 13.21C119.74 13.738 120.532 14.476 121.096 15.424C121.66 16.372 121.942 17.464 121.942 18.7C121.942 19.936 121.66 21.028 121.096 21.976C120.532 22.924 119.74 23.668 118.72 24.208C117.712 24.736 116.536 25 115.192 25H110.062ZM111.394 23.848H115.12C116.236 23.848 117.202 23.632 118.018 23.2C118.846 22.756 119.488 22.15 119.944 21.382C120.4 20.602 120.628 19.708 120.628 18.7C120.628 17.68 120.4 16.786 119.944 16.018C119.488 15.25 118.846 14.65 118.018 14.218C117.202 13.774 116.236 13.552 115.12 13.552H111.394V23.848ZM124.663 25V15.55H125.941V25H124.663ZM125.311 13.462C125.047 13.462 124.825 13.372 124.645 13.192C124.465 13.012 124.375 12.796 124.375 12.544C124.375 12.292 124.465 12.082 124.645 11.914C124.825 11.734 125.047 11.644 125.311 11.644C125.575 11.644 125.797 11.728 125.977 11.896C126.157 12.064 126.247 12.274 126.247 12.526C126.247 12.79 126.157 13.012 125.977 13.192C125.809 13.372 125.587 13.462 125.311 13.462ZM131.927 25L127.733 15.55H129.065L132.917 24.316H132.287L136.193 15.55H137.453L133.241 25H131.927ZM143.003 25.09C142.019 25.09 141.155 24.886 140.411 24.478C139.667 24.058 139.085 23.488 138.665 22.768C138.245 22.036 138.035 21.202 138.035 20.266C138.035 19.33 138.233 18.502 138.629 17.782C139.037 17.062 139.589 16.498 140.285 16.09C140.993 15.67 141.785 15.46 142.661 15.46C143.549 15.46 144.335 15.664 145.019 16.072C145.715 16.468 146.261 17.032 146.657 17.764C147.053 18.484 147.251 19.318 147.251 20.266C147.251 20.326 147.245 20.392 147.233 20.464C147.233 20.524 147.233 20.59 147.233 20.662H139.007V19.708H146.549L146.045 20.086C146.045 19.402 145.895 18.796 145.595 18.268C145.307 17.728 144.911 17.308 144.407 17.008C143.903 16.708 143.321 16.558 142.661 16.558C142.013 16.558 141.431 16.708 140.915 17.008C140.399 17.308 139.997 17.728 139.709 18.268C139.421 18.808 139.277 19.426 139.277 20.122V20.32C139.277 21.04 139.433 21.676 139.745 22.228C140.069 22.768 140.513 23.194 141.077 23.506C141.653 23.806 142.307 23.956 143.039 23.956C143.615 23.956 144.149 23.854 144.641 23.65C145.145 23.446 145.577 23.134 145.937 22.714L146.657 23.542C146.237 24.046 145.709 24.43 145.073 24.694C144.449 24.958 143.759 25.09 143.003 25.09ZM149.852 25V15.55H151.076V18.124L150.95 17.674C151.214 16.954 151.658 16.408 152.282 16.036C152.906 15.652 153.68 15.46 154.604 15.46V16.702C154.556 16.702 154.508 16.702 154.46 16.702C154.412 16.69 154.364 16.684 154.316 16.684C153.32 16.684 152.54 16.99 151.976 17.602C151.412 18.202 151.13 19.06 151.13 20.176V25H149.852Z" fill="#00FFFF"/>
<g opacity="0.5" filter="url(#filter1_f_92_4155)">
<ellipse cx="12" cy="12" rx="12" ry="12" transform="matrix(1.31134e-07 -1 -1 -1.31134e-07 242 31)" fill="#00FFFF"/>
</g>
<path fill-rule="evenodd" clip-rule="evenodd" d="M242 19C242 12.3726 236.627 6.99999 230 6.99999C223.373 6.99999 218 12.3726 218 19C218 25.6274 223.373 31 230 31C236.627 31 242 25.6274 242 19ZM234.378 13.7589C234.199 13.7353 234.018 13.7588 233.852 13.827L222.366 18.5445C221.565 18.8734 221.524 20.003 222.367 20.3437C222.99 20.596 223.754 20.803 224.577 20.9367C225.028 21.0101 225.406 20.9367 226.13 20.5069C226.951 20.0194 229.433 18.2877 230.979 17.1489C231.602 16.6902 231.843 16.9779 231.315 17.4765C231.133 17.6492 230.931 17.8379 230.719 18.0366C229.373 19.2976 227.601 20.9576 227.473 21.4484C227.301 22.1128 228.7 23.0465 229.157 23.338C230.071 23.9205 231.086 24.4788 231.77 24.8411C232.588 25.2742 233.565 24.7756 233.713 23.9061L235.237 14.8923C235.266 14.719 235.247 14.5412 235.182 14.3774C235.117 14.2136 235.008 14.0698 234.866 13.9611C234.725 13.8523 234.556 13.7825 234.378 13.7589Z" fill="#00FFFF"/>
<path d="M270.218 25L266.024 18.718L267.158 18.07L271.766 25H270.218ZM263.342 19.222V18.052H266.942V19.222H263.342ZM267.212 18.844L265.988 18.628L270.002 12.4H271.442L267.212 18.844ZM255.98 25H254.432L259.04 18.07L260.174 18.718L255.98 25ZM263.756 25H262.46V12.4H263.756V25ZM262.856 19.222H259.256V18.052H262.856V19.222ZM258.986 18.844L254.756 12.4H256.196L260.192 18.628L258.986 18.844ZM277.516 25.09C276.532 25.09 275.668 24.886 274.924 24.478C274.18 24.058 273.598 23.488 273.178 22.768C272.758 22.036 272.548 21.202 272.548 20.266C272.548 19.33 272.746 18.502 273.142 17.782C273.55 17.062 274.102 16.498 274.798 16.09C275.506 15.67 276.298 15.46 277.174 15.46C278.062 15.46 278.848 15.664 279.532 16.072C280.228 16.468 280.774 17.032 281.17 17.764C281.566 18.484 281.764 19.318 281.764 20.266C281.764 20.326 281.758 20.392 281.746 20.464C281.746 20.524 281.746 20.59 281.746 20.662H273.52V19.708H281.062L280.558 20.086C280.558 19.402 280.408 18.796 280.108 18.268C279.82 17.728 279.424 17.308 278.92 17.008C278.416 16.708 277.834 16.558 277.174 16.558C276.526 16.558 275.944 16.708 275.428 17.008C274.912 17.308 274.51 17.728 274.222 18.268C273.934 18.808 273.79 19.426 273.79 20.122V20.32C273.79 21.04 273.946 21.676 274.258 22.228C274.582 22.768 275.026 23.194 275.59 23.506C276.166 23.806 276.82 23.956 277.552 23.956C278.128 23.956 278.662 23.854 279.154 23.65C279.658 23.446 280.09 23.134 280.45 22.714L281.17 23.542C280.75 24.046 280.222 24.43 279.586 24.694C278.962 24.958 278.272 25.09 277.516 25.09ZM278.776 13.66C278.572 13.66 278.392 13.588 278.236 13.444C278.08 13.3 278.002 13.114 278.002 12.886C278.002 12.658 278.08 12.472 278.236 12.328C278.392 12.184 278.572 12.112 278.776 12.112C278.992 12.112 279.172 12.184 279.316 12.328C279.472 12.472 279.55 12.658 279.55 12.886C279.55 13.114 279.472 13.3 279.316 13.444C279.172 13.588 278.992 13.66 278.776 13.66ZM275.572 13.66C275.356 13.66 275.17 13.588 275.014 13.444C274.87 13.3 274.798 13.114 274.798 12.886C274.798 12.658 274.87 12.472 275.014 12.328C275.17 12.184 275.356 12.112 275.572 12.112C275.776 12.112 275.956 12.184 276.112 12.328C276.268 12.472 276.346 12.658 276.346 12.886C276.346 13.114 276.268 13.3 276.112 13.444C275.956 13.588 275.776 13.66 275.572 13.66ZM282.672 24.982L282.762 23.884C282.846 23.896 282.924 23.914 282.996 23.938C283.08 23.95 283.152 23.956 283.212 23.956C283.596 23.956 283.902 23.812 284.13 23.524C284.37 23.236 284.55 22.852 284.67 22.372C284.79 21.892 284.874 21.352 284.922 20.752C284.97 20.14 285.012 19.528 285.048 18.916L285.21 15.55H292.14V25H290.862V16.288L291.186 16.666H286.038L286.344 16.27L286.2 19.006C286.164 19.822 286.098 20.602 286.002 21.346C285.918 22.09 285.78 22.744 285.588 23.308C285.408 23.872 285.156 24.316 284.832 24.64C284.508 24.952 284.094 25.108 283.59 25.108C283.446 25.108 283.296 25.096 283.14 25.072C282.996 25.048 282.84 25.018 282.672 24.982ZM297.573 25V16.324L297.897 16.666H293.991V15.55H302.433V16.666H298.527L298.851 16.324V25H297.573ZM313.497 25V15.55H314.775V25H313.497ZM308.259 18.88C309.447 18.892 310.353 19.156 310.977 19.672C311.601 20.188 311.913 20.932 311.913 21.904C311.913 22.912 311.577 23.686 310.905 24.226C310.233 24.766 309.273 25.03 308.025 25.018L304.281 25V15.55H305.559V18.844L308.259 18.88ZM307.935 24.046C308.823 24.058 309.489 23.884 309.933 23.524C310.389 23.152 310.617 22.612 310.617 21.904C310.617 21.196 310.395 20.68 309.951 20.356C309.507 20.02 308.835 19.846 307.935 19.834L305.559 19.798V24.01L307.935 24.046ZM318.414 25V15.55H319.692V23.056L326.01 15.55H327.144V25H325.866V17.476L319.566 25H318.414ZM322.698 14.182C321.906 14.182 321.264 13.984 320.772 13.588C320.292 13.18 320.04 12.598 320.016 11.842H320.934C320.946 12.322 321.114 12.7 321.438 12.976C321.762 13.252 322.182 13.39 322.698 13.39C323.214 13.39 323.634 13.252 323.958 12.976C324.294 12.7 324.468 12.322 324.48 11.842H325.398C325.386 12.598 325.134 13.18 324.642 13.588C324.15 13.984 323.502 14.182 322.698 14.182ZM335.823 25V12.4H341.061C342.393 12.4 343.437 12.676 344.193 13.228C344.961 13.768 345.345 14.566 345.345 15.622C345.345 16.666 344.979 17.458 344.247 17.998C343.515 18.526 342.555 18.79 341.367 18.79L341.673 18.34C343.077 18.34 344.145 18.616 344.877 19.168C345.609 19.72 345.975 20.53 345.975 21.598C345.975 22.678 345.591 23.518 344.823 24.118C344.067 24.706 342.927 25 341.403 25H335.823ZM337.137 23.938H341.403C342.471 23.938 343.281 23.74 343.833 23.344C344.385 22.948 344.661 22.336 344.661 21.508C344.661 20.692 344.385 20.092 343.833 19.708C343.281 19.324 342.471 19.132 341.403 19.132H337.137V23.938ZM337.137 18.106H340.989C341.961 18.106 342.705 17.914 343.221 17.53C343.749 17.134 344.013 16.552 344.013 15.784C344.013 15.016 343.749 14.44 343.221 14.056C342.705 13.66 341.961 13.462 340.989 13.462H337.137V18.106ZM353.05 25.09C352.066 25.09 351.202 24.886 350.458 24.478C349.714 24.058 349.132 23.488 348.712 22.768C348.292 22.036 348.082 21.202 348.082 20.266C348.082 19.33 348.28 18.502 348.676 17.782C349.084 17.062 349.636 16.498 350.332 16.09C351.04 15.67 351.832 15.46 352.708 15.46C353.596 15.46 354.382 15.664 355.066 16.072C355.762 16.468 356.308 17.032 356.704 17.764C357.1 18.484 357.298 19.318 357.298 20.266C357.298 20.326 357.292 20.392 357.28 20.464C357.28 20.524 357.28 20.59 357.28 20.662H349.054V19.708H356.596L356.092 20.086C356.092 19.402 355.942 18.796 355.642 18.268C355.354 17.728 354.958 17.308 354.454 17.008C353.95 16.708 353.368 16.558 352.708 16.558C352.06 16.558 351.478 16.708 350.962 17.008C350.446 17.308 350.044 17.728 349.756 18.268C349.468 18.808 349.324 19.426 349.324 20.122V20.32C349.324 21.04 349.48 21.676 349.792 22.228C350.116 22.768 350.56 23.194 351.124 23.506C351.7 23.806 352.354 23.956 353.086 23.956C353.662 23.956 354.196 23.854 354.688 23.65C355.192 23.446 355.624 23.134 355.984 22.714L356.704 23.542C356.284 24.046 355.756 24.43 355.12 24.694C354.496 24.958 353.806 25.09 353.05 25.09ZM364.375 25.108C363.607 25.108 362.923 24.982 362.323 24.73C361.735 24.478 361.231 24.094 360.811 23.578C360.391 23.062 360.073 22.426 359.857 21.67C359.641 20.902 359.533 20.014 359.533 19.006C359.533 18.106 359.617 17.32 359.785 16.648C359.953 15.964 360.187 15.376 360.487 14.884C360.787 14.392 361.135 13.978 361.531 13.642C361.939 13.294 362.377 13.018 362.845 12.814C363.325 12.598 363.817 12.436 364.321 12.328L368.569 11.338L368.785 12.526L364.789 13.426C364.537 13.486 364.231 13.57 363.871 13.678C363.523 13.786 363.163 13.948 362.791 14.164C362.431 14.38 362.095 14.68 361.783 15.064C361.471 15.448 361.219 15.946 361.027 16.558C360.847 17.158 360.757 17.908 360.757 18.808C360.757 19 360.763 19.156 360.775 19.276C360.787 19.384 360.799 19.504 360.811 19.636C360.835 19.756 360.853 19.936 360.865 20.176L360.307 19.708C360.439 18.976 360.709 18.34 361.117 17.8C361.525 17.248 362.035 16.822 362.647 16.522C363.271 16.21 363.961 16.054 364.717 16.054C365.593 16.054 366.373 16.246 367.057 16.63C367.741 17.002 368.275 17.524 368.659 18.196C369.055 18.868 369.253 19.648 369.253 20.536C369.253 21.412 369.049 22.198 368.641 22.894C368.245 23.59 367.681 24.136 366.949 24.532C366.217 24.916 365.359 25.108 364.375 25.108ZM364.519 24.046C365.191 24.046 365.785 23.896 366.301 23.596C366.817 23.284 367.219 22.864 367.507 22.336C367.807 21.808 367.957 21.214 367.957 20.554C367.957 19.906 367.807 19.33 367.507 18.826C367.219 18.322 366.817 17.926 366.301 17.638C365.785 17.338 365.185 17.188 364.501 17.188C363.829 17.188 363.235 17.332 362.719 17.62C362.203 17.896 361.795 18.286 361.495 18.79C361.207 19.294 361.063 19.876 361.063 20.536C361.063 21.196 361.207 21.79 361.495 22.318C361.795 22.846 362.203 23.266 362.719 23.578C363.247 23.89 363.847 24.046 364.519 24.046Z" fill="#00FFFF"/>
<g opacity="0.5" filter="url(#filter2_f_92_4155)">
<ellipse cx="12" cy="12" rx="12" ry="12" transform="matrix(1.31134e-07 -1 -1 -1.31134e-07 457 31)" fill="#00FFFF"/>
</g>
<path fill-rule="evenodd" clip-rule="evenodd" d="M457 19C457 12.3726 451.627 6.99999 445 6.99999C438.373 6.99999 433 12.3726 433 19C433 25.6274 438.373 31 445 31C451.627 31 457 25.6274 457 19ZM449.378 13.7589C449.199 13.7353 449.018 13.7588 448.852 13.827L437.366 18.5445C436.565 18.8734 436.524 20.003 437.367 20.3437C437.99 20.596 438.754 20.803 439.577 20.9367C440.028 21.0101 440.406 20.9367 441.13 20.5069C441.951 20.0194 444.433 18.2877 445.98 17.1489C446.602 16.6902 446.843 16.9779 446.315 17.4765C446.133 17.6492 445.931 17.8379 445.719 18.0366C444.373 19.2976 442.601 20.9576 442.473 21.4484C442.301 22.1128 443.7 23.0465 444.157 23.338C445.071 23.9205 446.086 24.4788 446.77 24.8411C447.588 25.2742 448.565 24.7756 448.713 23.9061L450.237 14.8923C450.266 14.719 450.247 14.5412 450.182 14.3774C450.117 14.2136 450.008 14.0698 449.866 13.9611C449.725 13.8523 449.556 13.7825 449.378 13.7589Z" fill="#00FFFF"/>
<path d="M476.524 25.108C475.576 25.108 474.7 24.952 473.896 24.64C473.092 24.316 472.396 23.866 471.808 23.29C471.22 22.714 470.758 22.036 470.422 21.256C470.098 20.476 469.936 19.624 469.936 18.7C469.936 17.776 470.098 16.924 470.422 16.144C470.758 15.364 471.22 14.686 471.808 14.11C472.408 13.534 473.11 13.09 473.914 12.778C474.718 12.454 475.594 12.292 476.542 12.292C477.454 12.292 478.312 12.448 479.116 12.76C479.92 13.06 480.598 13.516 481.15 14.128L480.304 14.974C479.788 14.446 479.218 14.068 478.594 13.84C477.97 13.6 477.298 13.48 476.578 13.48C475.822 13.48 475.12 13.612 474.472 13.876C473.824 14.128 473.26 14.494 472.78 14.974C472.3 15.442 471.922 15.994 471.646 16.63C471.382 17.254 471.25 17.944 471.25 18.7C471.25 19.456 471.382 20.152 471.646 20.788C471.922 21.412 472.3 21.964 472.78 22.444C473.26 22.912 473.824 23.278 474.472 23.542C475.12 23.794 475.822 23.92 476.578 23.92C477.298 23.92 477.97 23.8 478.594 23.56C479.218 23.32 479.788 22.936 480.304 22.408L481.15 23.254C480.598 23.866 479.92 24.328 479.116 24.64C478.312 24.952 477.448 25.108 476.524 25.108ZM483.72 25V15.55H484.944V18.124L484.818 17.674C485.082 16.954 485.526 16.408 486.15 16.036C486.774 15.652 487.548 15.46 488.472 15.46V16.702C488.424 16.702 488.376 16.702 488.328 16.702C488.28 16.69 488.232 16.684 488.184 16.684C487.188 16.684 486.408 16.99 485.844 17.602C485.28 18.202 484.998 19.06 484.998 20.176V25H483.72ZM496.022 25V22.912L495.968 22.57V19.078C495.968 18.274 495.74 17.656 495.284 17.224C494.84 16.792 494.174 16.576 493.286 16.576C492.674 16.576 492.092 16.678 491.54 16.882C490.988 17.086 490.52 17.356 490.136 17.692L489.56 16.738C490.04 16.33 490.616 16.018 491.288 15.802C491.96 15.574 492.668 15.46 493.412 15.46C494.636 15.46 495.578 15.766 496.238 16.378C496.91 16.978 497.246 17.896 497.246 19.132V25H496.022ZM492.764 25.09C492.056 25.09 491.438 24.976 490.91 24.748C490.394 24.508 489.998 24.184 489.722 23.776C489.446 23.356 489.308 22.876 489.308 22.336C489.308 21.844 489.422 21.4 489.65 21.004C489.89 20.596 490.274 20.272 490.802 20.032C491.342 19.78 492.062 19.654 492.962 19.654H496.22V20.608H492.998C492.086 20.608 491.45 20.77 491.09 21.094C490.742 21.418 490.568 21.82 490.568 22.3C490.568 22.84 490.778 23.272 491.198 23.596C491.618 23.92 492.206 24.082 492.962 24.082C493.682 24.082 494.3 23.92 494.816 23.596C495.344 23.26 495.728 22.78 495.968 22.156L496.256 23.038C496.016 23.662 495.596 24.16 494.996 24.532C494.408 24.904 493.664 25.09 492.764 25.09ZM499.692 25V24.154L505.992 16.18L506.262 16.612H499.8V15.55H507.27V16.378L500.988 24.37L500.664 23.938H507.396V25H499.692ZM509.807 28.582C509.363 28.582 508.937 28.51 508.529 28.366C508.133 28.222 507.791 28.006 507.503 27.718L508.097 26.764C508.337 26.992 508.595 27.166 508.871 27.286C509.159 27.418 509.477 27.484 509.825 27.484C510.245 27.484 510.605 27.364 510.905 27.124C511.217 26.896 511.511 26.488 511.787 25.9L512.399 24.514L512.543 24.316L516.431 15.55H517.691L512.957 26.134C512.693 26.746 512.399 27.232 512.075 27.592C511.763 27.952 511.421 28.204 511.049 28.348C510.677 28.504 510.263 28.582 509.807 28.582ZM512.327 25.27L507.971 15.55H509.303L513.155 24.226L512.327 25.27ZM524.472 25V12.4H529.188C530.256 12.4 531.174 12.574 531.942 12.922C532.71 13.258 533.298 13.75 533.706 14.398C534.126 15.034 534.336 15.808 534.336 16.72C534.336 17.608 534.126 18.376 533.706 19.024C533.298 19.66 532.71 20.152 531.942 20.5C531.174 20.848 530.256 21.022 529.188 21.022H525.21L525.804 20.392V25H524.472ZM525.804 20.5L525.21 19.852H529.152C530.412 19.852 531.366 19.582 532.014 19.042C532.674 18.49 533.004 17.716 533.004 16.72C533.004 15.712 532.674 14.932 532.014 14.38C531.366 13.828 530.412 13.552 529.152 13.552H525.21L525.804 12.922V20.5ZM536.7 25V15.55H537.924V18.124L537.798 17.674C538.062 16.954 538.506 16.408 539.13 16.036C539.754 15.652 540.528 15.46 541.452 15.46V16.702C541.404 16.702 541.356 16.702 541.308 16.702C541.26 16.69 541.212 16.684 541.164 16.684C540.168 16.684 539.388 16.99 538.824 17.602C538.26 18.202 537.978 19.06 537.978 20.176V25H536.7ZM547.548 25.09C546.636 25.09 545.814 24.886 545.082 24.478C544.362 24.058 543.792 23.488 543.372 22.768C542.952 22.036 542.742 21.202 542.742 20.266C542.742 19.318 542.952 18.484 543.372 17.764C543.792 17.044 544.362 16.48 545.082 16.072C545.802 15.664 546.624 15.46 547.548 15.46C548.484 15.46 549.312 15.664 550.032 16.072C550.764 16.48 551.334 17.044 551.742 17.764C552.162 18.484 552.372 19.318 552.372 20.266C552.372 21.202 552.162 22.036 551.742 22.768C551.334 23.488 550.764 24.058 550.032 24.478C549.3 24.886 548.472 25.09 547.548 25.09ZM547.548 23.956C548.232 23.956 548.838 23.806 549.366 23.506C549.894 23.194 550.308 22.762 550.608 22.21C550.92 21.646 551.076 20.998 551.076 20.266C551.076 19.522 550.92 18.874 550.608 18.322C550.308 17.77 549.894 17.344 549.366 17.044C548.838 16.732 548.238 16.576 547.566 16.576C546.894 16.576 546.294 16.732 545.766 17.044C545.238 17.344 544.818 17.77 544.506 18.322C544.194 18.874 544.038 19.522 544.038 20.266C544.038 20.998 544.194 21.646 544.506 22.21C544.818 22.762 545.238 23.194 545.766 23.506C546.294 23.806 546.888 23.956 547.548 23.956ZM555.197 25V14.362C555.197 13.522 555.443 12.844 555.935 12.328C556.427 11.812 557.135 11.554 558.059 11.554C558.419 11.554 558.767 11.602 559.103 11.698C559.439 11.794 559.721 11.944 559.949 12.148L559.517 13.102C559.337 12.946 559.127 12.832 558.887 12.76C558.647 12.676 558.389 12.634 558.113 12.634C557.573 12.634 557.159 12.784 556.871 13.084C556.583 13.384 556.439 13.828 556.439 14.416V15.856L556.475 16.45V25H555.197ZM553.505 16.612V15.55H559.355V16.612H553.505ZM561.083 25V15.55H562.361V25H561.083ZM561.731 13.462C561.467 13.462 561.245 13.372 561.065 13.192C560.885 13.012 560.795 12.796 560.795 12.544C560.795 12.292 560.885 12.082 561.065 11.914C561.245 11.734 561.467 11.644 561.731 11.644C561.995 11.644 562.217 11.728 562.397 11.896C562.577 12.064 562.667 12.274 562.667 12.526C562.667 12.79 562.577 13.012 562.397 13.192C562.229 13.372 562.007 13.462 561.731 13.462ZM568.938 25.09C568.05 25.09 567.366 24.85 566.886 24.37C566.406 23.89 566.166 23.212 566.166 22.336V13.462H567.444V22.264C567.444 22.816 567.582 23.242 567.858 23.542C568.146 23.842 568.554 23.992 569.082 23.992C569.646 23.992 570.114 23.83 570.486 23.506L570.936 24.424C570.684 24.652 570.378 24.82 570.018 24.928C569.67 25.036 569.31 25.09 568.938 25.09ZM564.474 16.612V15.55H570.324V16.612H564.474ZM575.8 25.09C575.02 25.09 574.282 24.982 573.586 24.766C572.89 24.538 572.344 24.256 571.948 23.92L572.524 22.912C572.908 23.2 573.4 23.452 574 23.668C574.6 23.872 575.23 23.974 575.89 23.974C576.79 23.974 577.438 23.836 577.834 23.56C578.23 23.272 578.428 22.894 578.428 22.426C578.428 22.078 578.314 21.808 578.086 21.616C577.87 21.412 577.582 21.262 577.222 21.166C576.862 21.058 576.46 20.968 576.016 20.896C575.572 20.824 575.128 20.74 574.684 20.644C574.252 20.548 573.856 20.41 573.496 20.23C573.136 20.038 572.842 19.78 572.614 19.456C572.398 19.132 572.29 18.7 572.29 18.16C572.29 17.644 572.434 17.182 572.722 16.774C573.01 16.366 573.43 16.048 573.982 15.82C574.546 15.58 575.23 15.46 576.034 15.46C576.646 15.46 577.258 15.544 577.87 15.712C578.482 15.868 578.986 16.078 579.382 16.342L578.824 17.368C578.404 17.08 577.954 16.876 577.474 16.756C576.994 16.624 576.514 16.558 576.034 16.558C575.182 16.558 574.552 16.708 574.144 17.008C573.748 17.296 573.55 17.668 573.55 18.124C573.55 18.484 573.658 18.766 573.874 18.97C574.102 19.174 574.396 19.336 574.756 19.456C575.128 19.564 575.53 19.654 575.962 19.726C576.406 19.798 576.844 19.888 577.276 19.996C577.72 20.092 578.122 20.23 578.482 20.41C578.854 20.578 579.148 20.824 579.364 21.148C579.592 21.46 579.706 21.874 579.706 22.39C579.706 22.942 579.55 23.422 579.238 23.83C578.938 24.226 578.494 24.538 577.906 24.766C577.33 24.982 576.628 25.09 575.8 25.09ZM585.016 25L590.776 12.4H592.09L597.85 25H596.446L591.154 13.174H591.694L586.402 25H585.016ZM587.284 21.634L587.68 20.554H595.006L595.402 21.634H587.284ZM603.609 28.582C602.745 28.582 601.917 28.456 601.125 28.204C600.333 27.952 599.691 27.592 599.199 27.124L599.847 26.152C600.291 26.548 600.837 26.86 601.485 27.088C602.145 27.328 602.841 27.448 603.573 27.448C604.773 27.448 605.655 27.166 606.219 26.602C606.783 26.05 607.065 25.186 607.065 24.01V21.652L607.245 20.032L607.119 18.412V15.55H608.343V23.848C608.343 25.48 607.941 26.674 607.137 27.43C606.345 28.198 605.169 28.582 603.609 28.582ZM603.375 24.64C602.475 24.64 601.665 24.448 600.945 24.064C600.225 23.668 599.655 23.122 599.235 22.426C598.827 21.73 598.623 20.932 598.623 20.032C598.623 19.132 598.827 18.34 599.235 17.656C599.655 16.96 600.225 16.42 600.945 16.036C601.665 15.652 602.475 15.46 603.375 15.46C604.215 15.46 604.971 15.634 605.643 15.982C606.315 16.33 606.849 16.846 607.245 17.53C607.641 18.214 607.839 19.048 607.839 20.032C607.839 21.016 607.641 21.85 607.245 22.534C606.849 23.218 606.315 23.74 605.643 24.1C604.971 24.46 604.215 24.64 603.375 24.64ZM603.501 23.506C604.197 23.506 604.815 23.362 605.355 23.074C605.895 22.774 606.321 22.366 606.633 21.85C606.945 21.322 607.101 20.716 607.101 20.032C607.101 19.348 606.945 18.748 606.633 18.232C606.321 17.716 605.895 17.314 605.355 17.026C604.815 16.726 604.197 16.576 603.501 16.576C602.817 16.576 602.199 16.726 601.647 17.026C601.107 17.314 600.681 17.716 600.369 18.232C600.069 18.748 599.919 19.348 599.919 20.032C599.919 20.716 600.069 21.322 600.369 21.85C600.681 22.366 601.107 22.774 601.647 23.074C602.199 23.362 602.817 23.506 603.501 23.506ZM615.913 25.09C614.929 25.09 614.065 24.886 613.321 24.478C612.577 24.058 611.995 23.488 611.575 22.768C611.155 22.036 610.945 21.202 610.945 20.266C610.945 19.33 611.143 18.502 611.539 17.782C611.947 17.062 612.499 16.498 613.195 16.09C613.903 15.67 614.695 15.46 615.571 15.46C616.459 15.46 617.245 15.664 617.929 16.072C618.625 16.468 619.171 17.032 619.567 17.764C619.963 18.484 620.161 19.318 620.161 20.266C620.161 20.326 620.155 20.392 620.143 20.464C620.143 20.524 620.143 20.59 620.143 20.662H611.917V19.708H619.459L618.955 20.086C618.955 19.402 618.805 18.796 618.505 18.268C618.217 17.728 617.821 17.308 617.317 17.008C616.813 16.708 616.231 16.558 615.571 16.558C614.923 16.558 614.341 16.708 613.825 17.008C613.309 17.308 612.907 17.728 612.619 18.268C612.331 18.808 612.187 19.426 612.187 20.122V20.32C612.187 21.04 612.343 21.676 612.655 22.228C612.979 22.768 613.423 23.194 613.987 23.506C614.563 23.806 615.217 23.956 615.949 23.956C616.525 23.956 617.059 23.854 617.551 23.65C618.055 23.446 618.487 23.134 618.847 22.714L619.567 23.542C619.147 24.046 618.619 24.43 617.983 24.694C617.359 24.958 616.669 25.09 615.913 25.09ZM627.586 15.46C628.354 15.46 629.026 15.61 629.602 15.91C630.19 16.198 630.646 16.642 630.97 17.242C631.306 17.842 631.474 18.598 631.474 19.51V25H630.196V19.636C630.196 18.64 629.944 17.89 629.44 17.386C628.948 16.87 628.252 16.612 627.352 16.612C626.68 16.612 626.092 16.75 625.588 17.026C625.096 17.29 624.712 17.68 624.436 18.196C624.172 18.7 624.04 19.312 624.04 20.032V25H622.762V15.55H623.986V18.142L623.788 17.656C624.088 16.972 624.568 16.438 625.228 16.054C625.888 15.658 626.674 15.46 627.586 15.46ZM638.851 25.09C637.915 25.09 637.075 24.886 636.331 24.478C635.599 24.058 635.023 23.488 634.603 22.768C634.183 22.036 633.973 21.202 633.973 20.266C633.973 19.318 634.183 18.484 634.603 17.764C635.023 17.044 635.599 16.48 636.331 16.072C637.075 15.664 637.915 15.46 638.851 15.46C639.655 15.46 640.381 15.616 641.029 15.928C641.677 16.24 642.187 16.708 642.559 17.332L641.605 17.98C641.281 17.5 640.879 17.146 640.399 16.918C639.919 16.69 639.397 16.576 638.833 16.576C638.161 16.576 637.555 16.732 637.015 17.044C636.475 17.344 636.049 17.77 635.737 18.322C635.425 18.874 635.269 19.522 635.269 20.266C635.269 21.01 635.425 21.658 635.737 22.21C636.049 22.762 636.475 23.194 637.015 23.506C637.555 23.806 638.161 23.956 638.833 23.956C639.397 23.956 639.919 23.842 640.399 23.614C640.879 23.386 641.281 23.038 641.605 22.57L642.559 23.218C642.187 23.83 641.677 24.298 641.029 24.622C640.381 24.934 639.655 25.09 638.851 25.09ZM645 28.582C644.556 28.582 644.13 28.51 643.722 28.366C643.326 28.222 642.984 28.006 642.696 27.718L643.29 26.764C643.53 26.992 643.788 27.166 644.064 27.286C644.352 27.418 644.67 27.484 645.018 27.484C645.438 27.484 645.798 27.364 646.098 27.124C646.41 26.896 646.704 26.488 646.98 25.9L647.592 24.514L647.736 24.316L651.624 15.55H652.884L648.15 26.134C647.886 26.746 647.592 27.232 647.268 27.592C646.956 27.952 646.614 28.204 646.242 28.348C645.87 28.504 645.456 28.582 645 28.582ZM647.52 25.27L643.164 15.55H644.496L648.348 24.226L647.52 25.27Z" fill="#00FFFF"/>
<defs>
<filter id="filter0_f_92_4155" x="0.174978" y="-5.82501" width="49.65" height="49.65" filterUnits="userSpaceOnUse" color-interpolation-filters="sRGB">
<feFlood flood-opacity="0" result="BackgroundImageFix"/>
<feBlend mode="normal" in="SourceGraphic" in2="BackgroundImageFix" result="shape"/>
<feGaussianBlur stdDeviation="6.4125" result="effect1_foregroundBlur_92_4155"/>
</filter>
<filter id="filter1_f_92_4155" x="205.175" y="-5.82501" width="49.65" height="49.65" filterUnits="userSpaceOnUse" color-interpolation-filters="sRGB">
<feFlood flood-opacity="0" result="BackgroundImageFix"/>
<feBlend mode="normal" in="SourceGraphic" in2="BackgroundImageFix" result="shape"/>
<feGaussianBlur stdDeviation="6.4125" result="effect1_foregroundBlur_92_4155"/>
</filter>
<filter id="filter2_f_92_4155" x="420.175" y="-5.82501" width="49.65" height="49.65" filterUnits="userSpaceOnUse" color-interpolation-filters="sRGB">
<feFlood flood-opacity="0" result="BackgroundImageFix"/>
<feBlend mode="normal" in="SourceGraphic" in2="BackgroundImageFix" result="shape"/>
<feGaussianBlur stdDeviation="6.4125" result="effect1_foregroundBlur_92_4155"/>
</filter>
</defs>
</svg>
