<svg width="77" height="74" viewBox="0 0 77 74" fill="none" xmlns="http://www.w3.org/2000/svg">
<path d="M6.93662 36.6606H2.97766C2.71386 36.6606 2.5 36.4468 2.5 36.183V23.089C2.5 22.8252 2.71386 22.6113 2.97766 22.6113H38.3627M6.93662 36.6606V69.9506C6.93662 70.2144 7.15048 70.4282 7.41428 70.4282H38.2394M6.93662 36.6606H38.2394M69.5423 36.6606H73.7477C74.0115 36.6606 74.2254 36.4468 74.2254 36.183V23.089C74.2254 22.8252 74.0115 22.6113 73.7477 22.6113H38.3627M69.5423 36.6606V69.9506C69.5423 70.2144 69.3284 70.4282 69.0646 70.4282H38.2394M69.5423 36.6606H38.3627M38.3627 22.6113V36.6606M38.3627 36.6606H38.2394M38.2394 70.4282V36.6606" stroke="#BAA6FF" stroke-width="5" stroke-linejoin="round"/>
<path d="M53.3152 22.3016C54.8021 22.1814 56.2807 21.6964 57.6147 20.8186C61.8516 18.0307 63.0262 12.336 60.2383 8.09921C57.4504 3.86237 51.7558 2.68775 47.519 5.47562C46.1816 6.3556 45.1494 7.5252 44.4505 8.84714L44.4113 8.85296L44.2688 9.21006C44.1047 9.55681 43.9628 9.9128 43.8436 10.2757L39.0041 22.4046L53.2834 22.3362L53.3152 22.3016Z" stroke="#BAA6FF" stroke-width="5" stroke-linejoin="round"/>
<path d="M23.5901 22.3016C22.1032 22.1814 20.6246 21.6964 19.2905 20.8186C15.0537 18.0307 13.8791 12.336 16.667 8.09921C19.4548 3.86237 25.1495 2.68775 29.3863 5.47562C30.7237 6.3556 31.7559 7.5252 32.4547 8.84714L32.494 8.85296L32.6364 9.21006C32.8006 9.55681 32.9424 9.9128 33.0616 10.2757L37.9011 22.4046L23.6219 22.3362L23.5901 22.3016Z" stroke="#BAA6FF" stroke-width="5" stroke-linejoin="round"/>
</svg>
